<?xml version="1.0" encoding="UTF-8"?>
<!DOCTYPE svg PUBLIC "-//W3C//DTD SVG 1.1//EN" "http://www.w3.org/Graphics/SVG/1.1/DTD/svg11.dtd">
<!-- Creator: CorelDRAW X6 -->
<svg xmlns="http://www.w3.org/2000/svg" xml:space="preserve" width="2067px" height="257px" version="1.1" style="shape-rendering:geometricPrecision; text-rendering:geometricPrecision; image-rendering:optimizeQuality; fill-rule:evenodd; clip-rule:evenodd"
viewBox="0 0 207210 25740"
 xmlns:xlink="http://www.w3.org/1999/xlink">
 <defs>
  <style type="text/css">
   <![CDATA[
    .fil0 {fill:black}
   ]]>
  </style>
 </defs>
 <g id="Ebene_x0020_1">
  <metadata id="CorelCorpID_0Corel-Layer"/>
  <path id="path15" class="fil0" d="M14516 22122c-233,-233 -605,-256 -884,-70 -1268,872 -2698,1244 -3989,1244 -4036,0 -7304,-3326 -7199,-7374 93,-3931 3408,-7036 7339,-7036l7723 0c733,0 1395,535 1489,1256 116,884 -582,1640 -1442,1640l-7793 0c-2105,0 -3908,1640 -3989,3745 -81,2210 1698,4048 3896,4048l7746 0c5280,0 9711,-4175 9804,-9456 105,-5408 -4268,-9839 -9642,-9839 -1640,0 -3722,395 -5594,1780 -337,244 -372,744 -81,1035l803 803c232,233 605,256 884,70 1268,-872 2698,-1244 3989,-1244 4036,0 7304,3326 7199,7385 -93,3931 -3408,7036 -7339,7036l-7723 0c-733,0 -1395,-523 -1489,-1256 -116,-884 582,-1640 1442,-1640l7793 0c2105,0 3908,-1640 3989,-3745 81,-2210 -1698,-4047 -3896,-4047l-7746 0c-5280,-12 -9700,4164 -9804,9444 -105,5408 4268,9839 9642,9839 1640,0 3722,-395 5594,-1780 337,-244 372,-745 81,-1035l-803 -803z"/>
  <path id="path4" class="fil0" d="M82661 0l-1184 0c-628,0 -894,266 -894,894l0 4084c-798,-217 -2138,-544 -3709,-544 -3878,0 -5931,2054 -5931,5956l0 3962c0,3842 2162,5872 6233,5872 2513,0 4120,-507 5110,-894 990,-399 1232,-749 1232,-1752l0 -16672c12,-628 -253,-906 -857,-906zm-2078 16708c0,230 0,230 -241,326 -810,278 -1849,435 -2936,435 -2344,0 -3479,-1051 -3479,-3202l1 -3793c0,-2247 1087,-3286 3431,-3286 1414,0 2549,350 3225,555l0 8964zm87562 -11852l-3456 0 0 -3951c0,-629 -266,-894 -894,-894l-1184 0c-616,0 -870,266 -870,894l0 3951 -2102 0c-628,0 -894,266 -894,894l0 979c0,629 266,894 894,894l2102 1 0 6379c0,2380 411,3878 1341,4832 906,942 2307,1353 4519,1353 157,0 326,0 495,-12 568,-24 918,-193 918,-894l0 -1015c0,-652 -266,-894 -930,-894 -2597,0 -3394,-471 -3394,-3431l0 -6318 3454 -1c604,0 870,-278 870,-894l0 -979c0,-616 -266,-894 -870,-894l0 -1zm19994 0l-1184 0c-628,0 -894,266 -894,894l0 13144c0,629 266,894 894,894l1184 1c628,0 894,-266 894,-894l0 -13144c0,-628 -266,-894 -894,-894l0 -1zm-128685 -423c-4084,0 -6511,2102 -6511,5618l0 4578c0,3443 2501,5593 6511,5593 4095,0 6548,-2090 6548,-5593l0 -4578c0,-3516 -2440,-5618 -6548,-5618zm3600 10196c0,1800 -1341,2863 -3600,2863 -2235,0 -3564,-1075 -3564,-2863l0 -4603c0,-1800 1329,-2863 3564,-2863 2247,0 3600,1075 3600,2863l0 4603zm85713 -10196c-2767,0 -4434,555 -5448,979 -930,386 -1208,785 -1208,1775l0 11718c0,616 266,894 870,894l1184 1c628,0 894,-266 894,-894l0 -10933c0,-169 24,-230 181,-290 1027,-326 2102,-496 3189,-496 2247,0 3286,990 3286,3117l0 8601c0,628 266,894 894,894l1185 1c628,0 894,-266 894,-894l0 -8686c0,-3793 -2041,-5787 -5920,-5787l1 0zm-18375 0c-4180,0 -6572,2271 -6572,6234l0 3479c0,3914 2295,6064 6463,6064 2996,0 5086,-1015 6233,-2996 205,-314 266,-592 205,-846 -61,-241 -241,-435 -544,-580l-749 -386c-242,-133 -435,-193 -616,-193 -363,0 -592,266 -785,532 -737,1232 -1945,1824 -3709,1824 -2320,0 -3540,-1087 -3540,-3141l0 -1123 8940 0c821,0 1268,-423 1268,-1208l1 -1631c-12,-3769 -2476,-6028 -6596,-6028zm3624 6488l-7249 0 0 -592c0,-2138 1293,-3310 3624,-3310 2332,0 3624,1172 3624,3310l1 592zm-38611 -6488c-4180,0 -6572,2271 -6572,6234l0 3479c0,3914 2295,6064 6463,6064 2996,0 5086,-1015 6233,-2996 205,-314 266,-592 205,-846 -61,-241 -241,-435 -544,-580l-749 -386c-242,-133 -435,-193 -616,-193 -363,0 -592,266 -785,532 -737,1232 -1945,1824 -3709,1824 -2320,0 -3540,-1087 -3540,-3141l0 -1123 8940 0c821,0 1268,-423 1268,-1208l0 -1631c-24,-3769 -2476,-6028 -6596,-6028zm3625 6488l-7249 0 0 -592c0,-2138 1292,-3310 3624,-3310 2332,0 3624,1172 3624,3310l1 592zm81811 -6488l-906 0c-2030,48 -3782,338 -5219,882 -930,386 -1208,798 -1208,1775l0 11803c0,616 266,894 870,894l1184 1c628,0 894,-266 894,-894l0 -10897c0,-193 0,-253 230,-350 1027,-314 2029,-471 3165,-471l978 -1c628,0 894,-266 894,-894l0 -954c12,-628 -253,-894 -882,-894l1 -1z"/>
  <path id="path17" class="fil0" d="M47699 14944c0,0 -942,-363 -1341,-350 -423,0 -604,326 -773,688 -688,1486 -1728,2271 -3564,2271 -2211,0 -3431,-1111 -3431,-3117l0 -4240c0,-2018 1184,-3092 3431,-3092 1885,0 2779,677 3443,2223 121,290 326,665 785,688 363,24 1776,-447 2054,-894 121,-193 85,-459 -24,-761 -568,-1788 -2090,-3926 -6137,-3926 -4204,0 -6511,2090 -6511,5872l0 4011c0,3805 2259,5895 6342,5895 3310,0 5388,-1317 6367,-4023 278,-773 -157,-1063 -640,-1244l0 -1z"/>
  <path id="path19" class="fil0" d="M118637 14944c0,0 -942,-363 -1341,-350 -423,0 -604,326 -773,688 -688,1486 -1728,2271 -3564,2271 -2211,0 -3431,-1111 -3431,-3117l0 -4240c0,-2018 1184,-3092 3431,-3092 1885,0 2779,677 3443,2223 121,290 326,665 785,688 363,24 1775,-447 2054,-894 121,-193 85,-459 -24,-761 -568,-1788 -2090,-3926 -6137,-3926 -4204,0 -6511,2090 -6511,5872l0 4011c0,3805 2259,5895 6342,5895 3310,0 5388,-1317 6367,-4023 278,-773 -157,-1063 -640,-1244l0 -1z"/>
  <path id="path21" class="fil0" d="M206489 14944c0,0 -942,-363 -1341,-350 -423,0 -604,326 -773,688 -688,1486 -1728,2271 -3564,2271 -2211,0 -3431,-1111 -3431,-3117l0 -4240c0,-2018 1184,-3092 3431,-3092 1885,0 2779,677 3443,2223 121,290 326,665 785,688 363,24 1776,-447 2054,-894 121,-193 84,-459 -24,-761 -568,-1788 -2090,-3926 -6137,-3926 -4204,0 -6511,2090 -6511,5872l0 4011c0,3805 2259,5895 6342,5895 3310,0 5388,-1317 6366,-4023 266,-773 -169,-1063 -640,-1244l0 -1z"/>
 </g>
</svg>
